<?xml version="1.0" encoding="utf-8"?>
<!-- Generator: Adobe Illustrator 15.1.0, SVG Export Plug-In  -->
<!DOCTYPE svg PUBLIC "-//W3C//DTD SVG 1.1//EN" "http://www.w3.org/Graphics/SVG/1.1/DTD/svg11.dtd" [
	<!ENTITY ns_flows "http://ns.adobe.com/Flows/1.0/">
]>
<svg version="1.1"
	 xmlns="http://www.w3.org/2000/svg" xmlns:xlink="http://www.w3.org/1999/xlink" xmlns:a="http://ns.adobe.com/AdobeSVGViewerExtensions/3.0/"
	 x="0px" y="0px" width="33px" height="33px" viewBox="0 0 33 33" overflow="visible" enable-background="new 0 0 33 33"
	 xml:space="preserve">
<defs>
</defs>
<path fill="#fff8" stroke="#fff0" stroke-width="2" stroke-linejoin="round" stroke-miterlimit="10" d="M16.724,1.063
	C12.122,1.063,4.645,1,1,1c0,2.882,0.009,11.7,0.009,15.779c0,8.681,7.034,15.715,15.715,15.715s15.715-7.034,15.715-15.715
	C32.439,8.098,25.406,1.063,16.724,1.063z M16.271,23.238c0,0.729-0.595,1.323-1.323,1.323h-3.97c-0.728,0-1.323-0.595-1.323-1.323
	V10.005c0-0.728,0.596-1.322,1.323-1.322h3.97c0.728,0,1.323,0.595,1.323,1.322V23.238z M23.535,23.238
	c0,0.729-0.596,1.323-1.324,1.323h-3.97c-0.728,0-1.323-0.595-1.323-1.323V10.005c0-0.728,0.595-1.322,1.323-1.322h3.97
	c0.728,0,1.324,0.595,1.324,1.322V23.238z"/>
</svg>
