<?xml version="1.0" encoding="utf-8"?>
<!-- Generator: Adobe Illustrator 15.1.0, SVG Export Plug-In  -->
<!DOCTYPE svg PUBLIC "-//W3C//DTD SVG 1.1//EN" "http://www.w3.org/Graphics/SVG/1.1/DTD/svg11.dtd" [
	<!ENTITY ns_flows "http://ns.adobe.com/Flows/1.0/">
]>
<svg version="1.1"
	 xmlns="http://www.w3.org/2000/svg" xmlns:xlink="http://www.w3.org/1999/xlink" xmlns:a="http://ns.adobe.com/AdobeSVGViewerExtensions/3.0/"
	 x="0px" y="0px" width="34px" height="34px" viewBox="0 0 34 34" overflow="visible" enable-background="new 0 0 34 34"
	 xml:space="preserve">
<defs>
</defs>
<path fill="#fff8" stroke="#fff0" stroke-width="2" stroke-linejoin="round" stroke-miterlimit="10" d="M16.952,1.103
	C12.596,0.933,4.657,1.02,1,1.039c0,3.905,0.064,11.508,0.064,15.952c0,8.776,7.111,15.887,15.888,15.887
	c8.776,0,15.887-7.11,15.887-15.887C32.839,8.213,25.721,1.446,16.952,1.103z M24.363,18.528l-11.275,6.471
	c-1.012,0.563-2.287-0.16-2.287-1.346V10.328c0-1.179,1.269-1.909,2.287-1.345l11.275,6.854
	C25.414,16.426,25.414,17.945,24.363,18.528z M1.064,16.991 M16.952,1.103"/>
</svg>
