<?xml version="1.0" encoding="UTF-8"?>
<svg
    xmlns="http://www.w3.org/2000/svg"
    xmlns:xlink="http://www.w3.org/1999/xlink" width="32pt" height="32pt" viewBox="0 0 32 32" version="1.1">
    <g id="surface1">
        <path style=" stroke:none;fill-rule:nonzero;fill:rgba(255%,255%,255%,0.35);fill-opacity:1;" d="M 16 0.5 C 7.4375 0.5 0.5 7.4375 0.5 16 C 0.5 24.5625 7.4375 31.5 16 31.5 C 24.5625 31.5 31.5 24.5625 31.5 16 C 31.5 7.4375 24.5625 0.5 16 0.5 Z M 15 21 C 15 21.550781 14.550781 22 14 22 L 11 22 C 10.449219 22 10 21.550781 10 21 L 10 11 C 10 10.449219 10.449219 10 11 10 L 14 10 C 14.550781 10 15 10.449219 15 11 Z M 22 21 C 22 21.550781 21.550781 22 21 22 L 18 22 C 17.449219 22 17 21.550781 17 21 L 17 11 C 17 10.449219 17.449219 10 18 10 L 21 10 C 21.550781 10 22 10.449219 22 11 Z M 22 21 "/>
    </g>
</svg>
