<svg id="Capa_1" data-name="Capa 1" xmlns="http://www.w3.org/2000/svg" viewBox="0 0 2049 1006"><defs><style>.cls-1{stroke:#000;stroke-miterlimit:10;}.cls-2{font-size:72px;fill:#fff;font-family:MyriadPro-Regular, Myriad Pro;}.cls-3{letter-spacing:-0.02em;}.cls-4{letter-spacing:-0.01em;}.cls-5{letter-spacing:-0.01em;}.cls-6{letter-spacing:-0.02em;}.cls-7{letter-spacing:-0.01em;}</style></defs><title>Sin título-1</title><rect class="cls-1" x="0.5" y="0.5" width="2048" height="1005"/><text class="cls-2" transform="translate(230.5 306.3)"><tspan class="cls-3">P</tspan><tspan x="37.2" y="0">ut </tspan><tspan class="cls-4" x="116" y="0">L</tspan><tspan x="149" y="0">ogo </tspan><tspan class="cls-3" x="283.5" y="0">P</tspan><tspan x="320.8" y="0">ut </tspan><tspan class="cls-4" x="399.5" y="0">L</tspan><tspan x="432.5" y="0">ogo </tspan><tspan class="cls-3" x="567.1" y="0">P</tspan><tspan x="604.3" y="0">ut </tspan><tspan class="cls-4" x="683.1" y="0">L</tspan><tspan x="716" y="0">ogo </tspan><tspan class="cls-3" x="850.6" y="0">P</tspan><tspan x="887.8" y="0">ut </tspan><tspan class="cls-5" x="966.6" y="0">L</tspan><tspan x="999.6" y="0">ogo </tspan><tspan class="cls-3" x="1134.1" y="0">P</tspan><tspan x="1171.3" y="0">ut </tspan><tspan class="cls-5" x="1250.1" y="0">L</tspan><tspan x="1283.1" y="0">ogo </tspan><tspan class="cls-3" x="1417.7" y="0">P</tspan><tspan x="1454.9" y="0">ut </tspan><tspan class="cls-4" x="0" y="86.4">L</tspan><tspan x="33" y="86.4">ogo </tspan><tspan class="cls-3" x="167.5" y="86.4">P</tspan><tspan x="204.8" y="86.4">ut </tspan><tspan class="cls-4" x="283.5" y="86.4">L</tspan><tspan x="316.5" y="86.4">ogo </tspan><tspan class="cls-3" x="451.1" y="86.4">P</tspan><tspan x="488.3" y="86.4">ut </tspan><tspan class="cls-4" x="567.1" y="86.4">L</tspan><tspan x="600" y="86.4">ogo </tspan><tspan class="cls-6" x="734.6" y="86.4">P</tspan><tspan x="771.8" y="86.4">ut </tspan><tspan class="cls-5" x="850.6" y="86.4">L</tspan><tspan x="883.6" y="86.4">ogo </tspan><tspan class="cls-3" x="1018.1" y="86.4">P</tspan><tspan x="1055.4" y="86.4">ut </tspan><tspan class="cls-5" x="1134.1" y="86.4">L</tspan><tspan x="1167.1" y="86.4">ogo </tspan><tspan class="cls-3" x="1301.7" y="86.4">P</tspan><tspan x="1338.9" y="86.4">ut </tspan><tspan class="cls-7" x="1417.7" y="86.4">L</tspan><tspan x="1450.6" y="86.4">ogo </tspan><tspan class="cls-3" x="0" y="172.8">P</tspan><tspan x="37.2" y="172.8">ut </tspan><tspan class="cls-4" x="116" y="172.8">L</tspan><tspan x="149" y="172.8">ogo </tspan><tspan class="cls-3" x="283.5" y="172.8">P</tspan><tspan x="320.8" y="172.8">ut </tspan><tspan class="cls-4" x="399.5" y="172.8">L</tspan><tspan x="432.5" y="172.8">ogo </tspan><tspan class="cls-3" x="567.1" y="172.8">P</tspan><tspan x="604.3" y="172.8">ut </tspan><tspan class="cls-4" x="683.1" y="172.8">L</tspan><tspan x="716" y="172.8">ogo </tspan><tspan class="cls-3" x="850.6" y="172.8">P</tspan><tspan x="887.8" y="172.8">ut </tspan><tspan class="cls-5" x="966.6" y="172.8">L</tspan><tspan x="999.6" y="172.8">ogo </tspan><tspan class="cls-3" x="1134.1" y="172.8">P</tspan><tspan x="1171.3" y="172.8">ut </tspan><tspan class="cls-5" x="1250.1" y="172.8">L</tspan><tspan x="1283.1" y="172.8">ogo </tspan><tspan class="cls-3" x="1417.7" y="172.8">P</tspan><tspan x="1454.9" y="172.8">ut </tspan><tspan class="cls-4" x="0" y="259.2">L</tspan><tspan x="33" y="259.2">ogo </tspan><tspan class="cls-3" x="167.5" y="259.2">P</tspan><tspan x="204.8" y="259.2">ut </tspan><tspan class="cls-4" x="283.5" y="259.2">L</tspan><tspan x="316.5" y="259.2">ogo </tspan><tspan class="cls-3" x="451.1" y="259.2">P</tspan><tspan x="488.3" y="259.2">ut </tspan><tspan class="cls-4" x="567.1" y="259.2">L</tspan><tspan x="600" y="259.2">ogo </tspan><tspan class="cls-6" x="734.6" y="259.2">P</tspan><tspan x="771.8" y="259.2">ut </tspan><tspan class="cls-5" x="850.6" y="259.2">L</tspan><tspan x="883.6" y="259.2">ogo </tspan><tspan class="cls-3" x="1018.1" y="259.2">P</tspan><tspan x="1055.4" y="259.2">ut </tspan><tspan class="cls-5" x="1134.1" y="259.2">L</tspan><tspan x="1167.1" y="259.2">ogo </tspan><tspan class="cls-3" x="1301.7" y="259.2">P</tspan><tspan x="1338.9" y="259.2">ut </tspan><tspan class="cls-7" x="1417.7" y="259.2">L</tspan><tspan x="1450.6" y="259.2">ogo </tspan><tspan class="cls-3" x="0" y="345.6">P</tspan><tspan x="37.2" y="345.6">ut </tspan><tspan class="cls-4" x="116" y="345.6">L</tspan><tspan x="149" y="345.6">ogo </tspan><tspan class="cls-3" x="283.5" y="345.6">P</tspan><tspan x="320.8" y="345.6">ut </tspan><tspan class="cls-4" x="399.5" y="345.6">L</tspan><tspan x="432.5" y="345.6">ogo </tspan><tspan class="cls-3" x="567.1" y="345.6">P</tspan><tspan x="604.3" y="345.6">ut </tspan><tspan class="cls-4" x="683.1" y="345.6">L</tspan><tspan x="716" y="345.6">ogo </tspan><tspan class="cls-3" x="850.6" y="345.6">P</tspan><tspan x="887.8" y="345.6">ut </tspan><tspan class="cls-5" x="966.6" y="345.6">L</tspan><tspan x="999.6" y="345.6">ogo </tspan><tspan class="cls-3" x="1134.1" y="345.6">P</tspan><tspan x="1171.3" y="345.6">ut </tspan><tspan class="cls-5" x="1250.1" y="345.6">L</tspan><tspan x="1283.1" y="345.6">ogo </tspan><tspan class="cls-3" x="1417.7" y="345.6">P</tspan><tspan x="1454.9" y="345.6">ut </tspan><tspan class="cls-4" x="0" y="432">L</tspan><tspan x="33" y="432">ogo </tspan><tspan class="cls-3" x="167.5" y="432">P</tspan><tspan x="204.8" y="432">ut </tspan><tspan class="cls-4" x="283.5" y="432">L</tspan><tspan x="316.5" y="432">ogo </tspan><tspan class="cls-3" x="451.1" y="432">P</tspan><tspan x="488.3" y="432">ut </tspan><tspan class="cls-4" x="567.1" y="432">L</tspan><tspan x="600" y="432">ogo </tspan><tspan class="cls-6" x="734.6" y="432">P</tspan><tspan x="771.8" y="432">ut </tspan><tspan class="cls-5" x="850.6" y="432">L</tspan><tspan x="883.6" y="432">ogo </tspan><tspan class="cls-3" x="1018.1" y="432">P</tspan><tspan x="1055.4" y="432">ut </tspan><tspan class="cls-5" x="1134.1" y="432">L</tspan><tspan x="1167.1" y="432">ogo </tspan><tspan class="cls-3" x="1301.7" y="432">P</tspan><tspan x="1338.9" y="432">ut </tspan><tspan class="cls-7" x="1417.7" y="432">L</tspan><tspan x="1450.6" y="432">ogo </tspan></text></svg>